
		<svg xmlns="http://www.w3.org/2000/svg" xmlns:xlink="http://www.w3.org/1999/xlink" version="1.1" width="3138.8888888888887" height="784.7222222222223">
			
			<g transform="scale(6.944444444444445) translate(10, 10)">
				<defs id="SvgjsDefs1064"/><g id="main_text" rel="mainfill" name="main_text" feature="main_text" xmlns:name="mainText_mainfill" groupName="main_text" fill="#ffcc00" transform="translate(108.41419792175293, -13.906776428222656) scale(4)"><path d="M3.457 23.124995 q1.15234375 0 2.119140625 -0.09765625 t1.6895 -0.22461 q0.83984375 -0.13671875 1.533203125 -0.322265625 l-0.2832 1.582 q-0.1171875 -0.009765625 -0.3515625 -0.01953125 t-0.52246 -0.019531 t-0.60547 -0.014648 t-0.60059 -0.0097656 t-0.50293 -0.0097656 t-0.31738 -0.0048828 l-4.2188 0 l0 -0.039063 q0.05859375 -0.205078125 0.1123046875 -0.5078125 t0.092773 -0.75195 t0.058594 -1.0693 t0.019531 -1.4502 l0 -6.3574 q0 -0.830078125 -0.01953125 -1.450195313 t-0.058594 -1.0742 t-0.092773 -0.75684 t-0.1123 -0.50781 l0 -0.039063 l2.3438 0 l0 0.039063 q-0.05859375 0.205078125 -0.1123046875 0.5078125 t-0.087891 0.75684 t-0.058594 1.0742 t-0.024414 1.4502 l0 9.3164 z  M16.85551875 20.683575 l-0.65918 0 l-0.86426 0 l-0.9668 0 t-0.94727 0.0048828 t-0.82031 0.0097656 t-0.57617 0.0048828 l-0.36133 0.76172 q-0.234375 0.46875 -0.400390625 0.8154296875 t-0.27344 0.61035 t-0.15625 0.4541 t-0.048828 0.35645 q0 0.107421875 0.009765625 0.1611328125 t0.029297 0.083008 l0 0.039063 l-1.7188 0 l0 -0.039063 q0.068359375 -0.068359375 0.21484375 -0.2978515625 t0.33691 -0.56152 t0.41016 -0.75195 t0.43457 -0.86914 l3.9844 -8.2227 l0.73242 0 l3.9063 8.2227 q0.224609375 0.46875 0.4541015625 0.8984375 t0.4248 0.7666 t0.3418 0.55664 t0.19531 0.25879 l0 0.039063 l-2.5 0 q0.01953125 -0.078125 0.01953125 -0.1416015625 l0 -0.1416 q0 -0.21484375 -0.0927734375 -0.517578125 t-0.22461 -0.62012 t-0.27344 -0.61035 t-0.22949 -0.48828 z M12.40231875 19.921875 l0.5957 0 q0.41015625 0 0.8740234375 -0.0048828125 t0.93262 -0.0048828 t0.9082 -0.0048828 t0.79102 -0.0048828 l-2.0215 -4.3164 z M23.017553125 23.242185 l3.0859 0 q0.80078125 0 1.474609375 -0.087890625 t1.1719 -0.19531 q0.576171875 -0.126953125 1.044921875 -0.29296875 l-0.45898 1.3965 q-0.126953125 -0.009765625 -0.4248046875 -0.0244140625 t-0.63477 -0.029297 t-0.62988 -0.019531 t-0.41016 -0.0048828 l-6.6406 0 l0 -0.26367 l6.7676 -9.4922 l-2.3633 0 q-0.849609375 0 -1.552734375 0.0927734375 t-1.2305 0.2002 q-0.60546875 0.126953125 -1.11328125 0.283203125 l0.6543 -1.3965 q0.126953125 0.01953125 0.4345703125 0.029296875 t0.64453 0.024414 t0.625 0.019531 t0.39551 0.0048828 l5.9668 0 l0 0.17578 z M36.03515 19.960975 q0 0.87890625 0.01953125 1.533203125 t0.053711 1.1279 t0.087891 0.7959 t0.12207 0.52734 l0 0.039063 l-2.2656 0 l0 -0.039063 q0.068359375 -0.205078125 0.1220703125 -0.52734375 t0.087891 -0.7959 t0.053711 -1.1279 t0.019531 -1.5332 l0 -0.67383 l-3.5156 -4.6387 q-0.3515625 -0.46875 -0.673828125 -0.7568359375 t-0.48828 -0.36621 l0 -0.039063 l2.7734 0 q0 0.17578125 0.126953125 0.5419921875 t0.51758 0.89355 l2.4805 3.2813 l2.5391 -3.418 q0.2734375 -0.37109375 0.4150390625 -0.732421875 t0.1416 -0.56641 l1.7871 0 l0 0.039063 q-0.244140625 0.166015625 -0.5029296875 0.419921875 t-0.60059 0.72266 l-3.3008 4.4727 l0 0.82031 z  M47.2753625 12.207375 l-0.21484 0 q-0.078125 -0.224609375 -0.2490234375 -0.5078125 t-0.44922 -0.53223 t-0.67383 -0.41504 t-0.93262 -0.16602 q-0.478515625 0 -0.849609375 0.146484375 t-0.62012 0.41016 t-0.37598 0.625 t-0.12695 0.80078 q0 0.703125 0.3955078125 1.342773438 t0.99121 1.2646 t1.2891 1.25 t1.2891 1.2988 t0.99121 1.4111 t0.39551 1.5869 q0 0.634765625 -0.2197265625 1.274414063 t-0.67871 1.1475 t-1.1816 0.8252 t-1.7188 0.31738 q-0.556640625 0 -1.059570313 -0.1025390625 t-0.92773 -0.25391 t-0.76172 -0.32715 t-0.55176 -0.32227 l0.22461 -2.1582 l0.24414 0 q0.107421875 0.458984375 0.3515625 0.8740234375 t0.60059 0.73242 t0.81543 0.50781 t1.0059 0.19043 q0.498046875 0 0.8935546875 -0.1513671875 t0.67871 -0.41992 t0.43457 -0.63965 t0.15137 -0.81055 q0 -0.615234375 -0.224609375 -1.137695313 t-0.59082 -0.99121 t-0.83008 -0.9082 t-0.95215 -0.88379 t-0.95215 -0.91309 t-0.83008 -1.001 t-0.59082 -1.1426 t-0.22461 -1.3428 q0 -0.771484375 0.2978515625 -1.391601563 t0.79102 -1.0596 t1.1182 -0.67383 t1.2891 -0.23438 q0.48828125 0 0.8984375 0.078125 t0.7373 0.18555 t0.57129 0.21484 t0.40039 0.17578 z M58.457025 17.460975 q0 -0.869140625 -0.009765625 -1.513671875 t-0.039063 -1.1133 t-0.068359 -0.78613 t-0.097656 -0.52246 l0 -0.039063 l1.4355 0 l0 0.039063 q-0.05859375 0.205078125 -0.09765625 0.52734375 t-0.068359 0.7959 t-0.039063 1.123 t-0.0097656 1.5283 l0 2.8027 q0 1.0546875 -0.3271484375 1.796875 t-0.90332 1.2158 t-1.3721 0.69336 t-1.7432 0.21973 q-0.95703125 0 -1.77734375 -0.2099609375 t-1.4209 -0.66895 t-0.94727 -1.1914 t-0.34668 -1.7773 l0 -2.8809 q0 -0.87890625 -0.01953125 -1.528320313 t-0.058594 -1.123 t-0.087891 -0.7959 t-0.11719 -0.52734 l0 -0.039063 l2.2559 0 l0 0.039063 q-0.068359375 0.205078125 -0.1171875 0.5224609375 t-0.083008 0.78613 t-0.053711 1.1133 t-0.019531 1.5137 l0 2.9199 q0 0.869140625 0.263671875 1.430664063 t0.69336 0.89355 t0.97656 0.46387 t1.123 0.13184 q0.5859375 0 1.137695313 -0.1318359375 t0.98633 -0.46387 t0.69336 -0.89355 t0.25879 -1.4307 l0 -2.9199 z M63.5156 23.242185 l3.0859 0 q0.80078125 0 1.474609375 -0.087890625 t1.1719 -0.19531 q0.576171875 -0.126953125 1.044921875 -0.29296875 l-0.45898 1.3965 q-0.126953125 -0.009765625 -0.4248046875 -0.0244140625 t-0.63477 -0.029297 t-0.62988 -0.019531 t-0.41016 -0.0048828 l-6.6406 0 l0 -0.26367 l6.7676 -9.4922 l-2.3633 0 q-0.849609375 0 -1.552734375 0.0927734375 t-1.2305 0.2002 q-0.60546875 0.126953125 -1.11328125 0.283203125 l0.6543 -1.3965 q0.126953125 0.01953125 0.4345703125 0.029296875 t0.64453 0.024414 t0.625 0.019531 t0.39551 0.0048828 l5.9668 0 l0 0.17578 z M76.533196875 19.960975 q0 0.87890625 0.01953125 1.533203125 t0.053711 1.1279 t0.087891 0.7959 t0.12207 0.52734 l0 0.039063 l-2.2656 0 l0 -0.039063 q0.068359375 -0.205078125 0.1220703125 -0.52734375 t0.087891 -0.7959 t0.053711 -1.1279 t0.019531 -1.5332 l0 -0.67383 l-3.5156 -4.6387 q-0.3515625 -0.46875 -0.673828125 -0.7568359375 t-0.48828 -0.36621 l0 -0.039063 l2.7734 0 q0 0.17578125 0.126953125 0.5419921875 t0.51758 0.89355 l2.4805 3.2813 l2.5391 -3.418 q0.2734375 -0.37109375 0.4150390625 -0.732421875 t0.1416 -0.56641 l1.7871 0 l0 0.039063 q-0.244140625 0.166015625 -0.5029296875 0.419921875 t-0.60059 0.72266 l-3.3008 4.4727 l0 0.82031 z "/></g><g id="SvgjsG1066" rel="mainfill" name="symbol" feature="symbol" xmlns:name="symbol_mainfill" fill="#ffcc00" transform="translate(2.020833333333332, 2.020833333333332) scale(4.326388888888889)"><path d="M17 21h-10c-2.209 0-4-1.791-4-4v-10c0-2.209 1.791-4 4-4h10c2.209 0 4 1.791 4 4v10c0 2.209-1.791 4-4 4zM19 7c0-1.105-0.895-2-2-2h-10c-1.105 0-2 0.895-2 2v10c0 1.105 0.895 2 2 2h10c1.105 0 2-0.895 2-2v-10zM12 16.5c-2.485 0-4.5-2.015-4.5-4.5s2.015-4.5 4.5-4.5c2.485 0 4.5 2.015 4.5 4.5s-2.015 4.5-4.5 4.5z"/></g>
			</g>
		</svg>
	